<?xml version="1.0" encoding="UTF-8"?>
<svg id="Capa_1" data-name="Capa 1" xmlns="http://www.w3.org/2000/svg" viewBox="0 0 32 32">
  <path fill="currentColor" class="cls-1" d="M17.6074457,14.3932395v-.4037683c0-3.6022286-.0004285-7.2044563,.0001767-10.8066844,.0003168-1.8967973,1.2460977-3.1413706,3.1444155-3.1418027,2.6938186-.0006133,5.3876372-.00077,8.0814558,.0000567,1.8772096,.0005762,3.1278467,1.2488863,3.1285555,3.1233213,.0010236,2.7044413,.0011536,5.4088836-.0000447,8.1133254-.0008205,1.8565338-1.2535535,3.1145366-3.1032533,3.1151783-3.6250143,.001257-7.2500287,.0003706-10.875043,.0003726-.1095438,.000001-.2190877,.000001-.3762625,.000001Z"/>
  <path fill="currentColor" class="cls-1" d="M17.6074457,17.6074729h.4128813c3.6028379,0,7.2056778-.0004894,10.8085157,.0002031,1.8790579,.0003615,3.1323981,1.2475927,3.1331801,3.1186802,.0011292,2.7044438,.0011049,5.4088856,.0000041,8.1133295-.0007596,1.8717474-1.2536266,3.1194782-3.1318741,3.1200082-2.7049017,.0007656-5.4098015,.001125-8.1147032-.000134-1.8502563-.000863-3.1071183-1.2592385-3.1076768-3.1117536-.0010906-3.6133079-.000325-7.2266137-.000327-10.8399216v-.4004117Z"/>
  <path fill="currentColor" class="cls-1" d="M14.3926501,14.3932405h-.3990015c-3.6138632-.000002-7.2277268,.0007351-10.84159-.0003117-1.8538542-.0005361-3.1130314-1.256294-3.1139178-3.1054322-.0013017-2.7154763-.0013797-5.4309532,.0000296-8.146429C.0391211,1.3090394,1.2994228,.042575,3.1242456,.0413262c2.7381116-.0018739,5.4762293-.0028015,8.2143378,.0003582,1.7692155,.0020417,3.0507531,1.2718063,3.0527729,3.0310633,.0042113,3.6686591,.0012866,7.3373265,.0012937,11.0059909v.314502Z"/>
  <path fill="currentColor" class="cls-1" d="M14.3926653,17.607475v.4086642c-.000001,3.6021616,.0005017,7.2043233-.0002102,10.8064849-.0003747,1.8958472-1.2459454,3.1367123-3.1480673,3.1371164-2.6937688,.0005726-5.3875372,.0008204-8.0813055-.0000853-1.8733035-.0006295-3.1244833-1.2529516-3.1250653-3.1277368-.0008396-2.704391-.0010946-5.4087841,.0000923-8.1131751,.0008128-1.8521029,1.2576871-3.1103382,3.1083625-3.1109271,3.6249468-.0011534,7.2498946-.0003391,10.874842-.0003411h.3713515Z"/>
</svg>