<?xml version="1.0" encoding="UTF-8"?>
<svg id="Capa_1" data-name="Capa 1" xmlns="http://www.w3.org/2000/svg" viewBox="0 0 33 32">
  <defs>
    <style>
      .cls-1 {
        fill: #696969;
      }
    </style>
  </defs>
  <path class="cls-1" d="M0,29.9179794V9.6451895c.1576626-.3690943,.2602354-.7759563,.4841895-1.0996034,.5022605-.7258426,1.2516768-.984117,2.1231146-.9817627,3.1899702,.0086189,6.3799779,.0033831,9.5699719,.0033645,.1219432-.0000005,.2438855-.0000005,.4130051-.0000005-.0962519-.1632674-.1541934-.2649139-.2152722-.3646559-1.0890863-1.7784897-2.1788256-3.5565825-3.2673267-5.3354268-.0724458-.1183919-.1481598-.2370635-.2018664-.3641805C8.599266,.7773543,9.128345-.0027178,9.9197634,.0031869c.4851117,.0036194,.7830893,.2810002,1.0203727,.6701266,1.3529924,2.2188033,2.7139707,4.4327859,4.0642949,6.6531917,.1081972,.177914,.2210118,.2499952,.4324681,.245825,.6978721-.0137621,1.3964345-.0155858,2.0942014,.0006397,.235639,.0054795,.3622735-.0760698,.4822674-.2734927,1.3330967-2.1933137,2.6755974-4.3809656,4.0169435-6.5693066,.0780487-.1273322,.1566875-.2572422,.2545257-.3690718,.2975705-.3401332,.7847003-.450654,1.204812-.2858171,.4311778,.1691784,.7207271,.563178,.6765887,1.0216281-.0234697,.243775-.1191226,.4997851-.247012,.7114757-1.0949222,1.8123901-2.2048661,3.6157879-3.3095267,5.422355-.0581136,.0950393-.1090597,.1944205-.1882473,.3364474,.180702,0,.3070984-.0000005,.4334929,0,3.1685119,.0000108,6.3370298,.0034639,9.5055299-.0027126,.6779852-.001322,1.292782,.1428942,1.818527,.5963038,.4600684,.3967684,.6810595,.9164184,.8209984,1.4844104V29.9179794c-.1574939,.3688976-.2597736,.7756715-.4836581,1.0990258-.5101156,.7367555-1.271596,.9841517-2.1535129,.9829907-5.9036352-.0077746-11.8072881-.0040253-17.7109341-.0040214-3.3382433,.000002-6.6764934-.0034732-10.0147254,.0028075-.6899898,.001298-1.3133629-.149753-1.8414413-.6180206-.4445725-.3942202-.658509-.9062611-.7957282-1.4627821Zm13.4888974-1.8626233c2.7065661,0,5.4131321,.0003407,8.1196972-.0001762,1.0231403-.0001938,1.5317727-.4998357,1.5318789-1.5056921,.000478-4.511418,.0004701-9.022838,.0000079-13.534256-.0001042-1.0070349-.5080916-1.5071692-1.5306044-1.5072397-5.4023916-.000373-10.8047832-.0004297-16.2071747,.0000705-1.0131712,.000094-1.5222428,.508089-1.5224454,1.5219538-.0008994,4.5007273-.0008883,9.0014535-.0000084,13.5021798,.0001984,1.0145471,.5087077,1.5226313,1.5211713,1.5228995,2.695826,.0007166,5.391652,.0002447,8.0874775,.0002604Zm12.2203503-12.5956152c-.0044394,1.233215,1.0001348,2.2446433,2.2407237,2.2560086,1.2169717,.0111499,2.2560561-1.0153107,2.2670651-2.2395197,.0109717-1.2200104-1.0126367-2.2420609-2.2503303-2.2469056-1.2452762-.004876-2.2529955,.9907731-2.2574585,2.2304167Zm2.2526749,10.8742048c1.2367474-.0020968,2.2599959-1.019242,2.2552673-2.2418191-.0047109-1.218636-1.0441788-2.2498502-2.2625332-2.2445738-1.2354552,.0053508-2.2474428,1.0201446-2.2453165,2.2515437,.00214,1.2393597,1.0076564,2.2369598,2.2525824,2.2348492Z"/>
</svg>