<?xml version="1.0" encoding="UTF-8"?>
<svg id="Capa_1" data-name="Capa 1" xmlns="http://www.w3.org/2000/svg" viewBox="0 0 32 32">
  <defs>
    <style>
      .cls-1 {
        fill: #696969;
      }
    </style>
  </defs>
  <path class="cls-1" d="M24.9165277,32.024565H7.0923928v-3.5231737H3.5522783v3.5196238h-1.5519037C.8958052,32.0210151,.0003747,31.1255846,.0003747,30.0210151V2.0189852C.0003747,.9221701,.8895189,.0330259,1.986334,.0330259h1.5411774V3.5346062h3.5558642V.0350555H24.9075919V3.5441608h3.5401139V.024565h1.5519196c1.1045695,0,2,.8954305,2,2V30.0125301c0,1.1045695-.8954305,2-2,2h-1.5271036v-3.5015561h-3.5559941v3.513591ZM3.5735578,10.6580741h3.4908575v-3.52065H3.5735578v3.52065Zm24.8644558-3.5184702h-3.505593v3.5161045h3.505593v-3.5161045ZM7.0721848,21.3948439H3.5813261v3.5078231h3.4908587v-3.5078231Zm21.361897,0h-3.4908587v3.5078231h3.4908587v-3.5078231ZM7.0715316,14.2776672H3.5813031v3.4902317h3.4902285v-3.4902317Zm21.3539072,3.4969494v-3.4889546h-3.4889667v3.4889546h3.4889667Z"/>
</svg>