<?xml version="1.0" encoding="UTF-8"?>
<svg id="Capa_1" data-name="Capa 1" xmlns="http://www.w3.org/2000/svg" viewBox="0 0 24 32">
  <defs>
    <style>
      .cls-1 {
        fill: #696969;
      }
    </style>
  </defs>
  <path class="cls-1" d="M1.8138492,32h-.621512c-.6627326-.2400074-1.0438563-.7176401-1.1557111-1.4099793-.0312975-.1937178-.0302477-.3940536-.0302773-.5913551C.0049995,20.9707862,.0203524,11.9428563-.0087215,2.9150714-.0139905,1.2789238,1.3286491-.001632,2.8729531,.0000016c6.1200879,.0064738,12.2401886-.0001456,18.3602798,.0045057,1.5883455,.0012071,2.771942,1.1884769,2.7726342,2.7837107,.0039508,9.1215933,.0012708,18.2431885,.0028697,27.3647838,.0001498,.8512145-.2755513,1.5238905-1.1256313,1.8469983h-.621512c-.4759513-.3197397-.9870107-.5975763-1.4220766-.9661174-2.5567135-2.165771-5.0947197-4.3538543-7.6412915-6.5317475-.7185948-.6145542-1.5362032-.6157348-2.250262-.0067191-2.5415834,2.1677049-5.082724,4.3359419-7.6204875,6.5081631-.4640372,.3971929-.9198688,.8011353-1.5136267,.9964208Z"/>
</svg>